<?xml version="1.0" standalone="no"?>
<!DOCTYPE svg PUBLIC "-//W3C//DTD SVG 20010904//EN"
 "http://www.w3.org/TR/2001/REC-SVG-20010904/DTD/svg10.dtd">
<svg version="1.0" xmlns="http://www.w3.org/2000/svg"
 width="260.000000pt" height="260.000000pt" viewBox="0 0 260.000000 260.000000"
 preserveAspectRatio="xMidYMid meet">
<metadata>
Created by potrace 1.11, written by Peter Selinger 2001-2013
</metadata>
<g transform="translate(0.000000,260.000000) scale(0.100000,-0.100000)"
fill="#000000" stroke="none">
<path d="M0 1300 l0 -1300 1300 0 1300 0 0 1300 0 1300 -1300 0 -1300 0 0
-1300z m655 845 c60 -29 155 -113 155 -138 0 -10 -129 -111 -161 -125 -3 -1
-24 15 -45 37 -52 51 -109 68 -181 51 -166 -37 -202 -301 -55 -404 74 -52 192
-36 244 34 12 17 25 30 29 30 13 0 179 -102 179 -110 0 -17 -49 -77 -87 -106
-76 -58 -144 -78 -268 -78 -99 -1 -116 2 -168 26 -66 31 -158 114 -194 176
-103 176 -75 395 69 528 97 90 171 116 318 111 91 -3 113 -8 165 -32z m788 3
c32 -15 84 -52 116 -83 219 -209 165 -558 -107 -692 -74 -37 -79 -38 -187 -38
-105 0 -114 2 -178 33 -93 46 -159 114 -205 209 -35 74 -37 83 -37 178 0 80 5
111 23 155 32 79 88 149 160 197 90 60 137 73 257 70 84 -2 109 -7 158 -29z
m768 22 c79 -15 170 -63 219 -116 146 -158 142 -450 -8 -600 -96 -96 -203
-124 -484 -124 l-148 0 0 425 0 425 184 0 c101 0 208 -5 237 -10z m-1661 -996
c30 -9 81 -27 112 -41 l57 -25 -46 -92 c-25 -50 -47 -93 -49 -95 -2 -2 -36 11
-76 29 -115 51 -218 51 -218 0 0 -27 28 -43 154 -84 124 -41 161 -62 205 -111
75 -85 67 -242 -16 -327 -57 -58 -121 -81 -239 -86 -113 -5 -217 16 -324 64
l-59 26 51 103 51 102 55 -28 c110 -59 250 -77 276 -37 18 29 -16 52 -128 87
-195 62 -257 117 -264 236 -5 76 15 145 57 196 34 41 113 86 173 99 56 12 159
5 228 -16z m1000 -84 l0 -100 -180 0 -180 0 0 -60 0 -60 155 0 155 0 0 -95 0
-95 -155 0 -155 0 0 -65 0 -65 185 0 185 0 0 -100 0 -100 -300 0 -300 0 0 420
0 420 295 0 295 0 0 -100z m587 -112 l168 -213 3 213 2 212 115 0 115 0 0
-420 0 -420 -94 0 -94 0 -164 202 -163 202 -3 -202 -2 -202 -115 0 -115 0 0
420 0 420 89 0 90 0 168 -212z"/>
<path d="M1207 1966 c-84 -31 -126 -101 -127 -209 0 -137 68 -219 185 -221 70
-1 122 29 160 89 27 43 30 57 30 129 0 65 -5 90 -23 123 -42 80 -142 120 -225
89z"/>
<path d="M2020 1761 l0 -221 70 0 c81 0 136 22 168 67 59 85 57 230 -5 303
-37 45 -76 61 -159 67 l-74 6 0 -222z"/>
</g>
</svg>
